<svg xmlns="http://www.w3.org/2000/svg" width="370" height="269" fill="none" viewBox="0 0 370 269">
    <rect width="262" height="161" x="48" y="48" fill="#fff" filter="url(#a)" rx="14"/>
    <path fill="#00B69B" d="M80 175l2.29 2.29-4.88 4.88-4-4-7.41 7.42 1.41 1.41 6-6 4 4 6.3-6.29L86 181v-6h-6zM103.96 180.208c.661.181 1.168.512 1.52.992.363.48.544 1.067.544 1.76 0 .992-.373 1.771-1.12 2.336-.747.555-1.781.832-3.104.832-1.323 0-2.357-.277-3.104-.832-.747-.565-1.12-1.344-1.12-2.336 0-.693.181-1.28.544-1.76.363-.491.875-.821 1.536-.992-.565-.213-1.008-.544-1.328-.992-.32-.459-.48-.992-.48-1.6 0-.939.352-1.68 1.056-2.224.704-.544 1.669-.816 2.896-.816 1.227 0 2.192.272 2.896.816.704.544 1.056 1.285 1.056 2.224 0 .619-.16 1.157-.48 1.616a2.58 2.58 0 0 1-1.312.976zm-2.16-4.016c-1.333 0-2 .544-2 1.632 0 .544.165.96.496 1.248.341.277.843.416 1.504.416s1.157-.139 1.488-.416c.341-.288.512-.704.512-1.248 0-1.088-.667-1.632-2-1.632zm0 8.32c1.525 0 2.288-.571 2.288-1.712s-.763-1.712-2.288-1.712-2.288.571-2.288 1.712.763 1.712 2.288 1.712zm13.538-6.528c1.098 0 1.914.267 2.448.8.533.533.8 1.355.8 2.464V186h-1.904v-1.2c-.182.416-.47.741-.864.976-.384.235-.832.352-1.344.352-.523 0-.998-.107-1.425-.32a2.532 2.532 0 0 1-1.007-.88 2.217 2.217 0 0 1-.368-1.248c0-.576.144-1.029.432-1.36.298-.331.778-.571 1.44-.72.661-.149 1.573-.224 2.736-.224h.4v-.368c0-.533-.118-.917-.352-1.152-.224-.235-.603-.352-1.136-.352-.416 0-.854.075-1.312.224a6.348 6.348 0 0 0-1.328.592l-.561-1.376a6.226 6.226 0 0 1 1.585-.688 6.27 6.27 0 0 1 1.76-.272zm-.464 6.704c.533 0 .965-.176 1.296-.528.341-.363.512-.827.512-1.392v-.336h-.288c-.715 0-1.27.032-1.664.096-.395.064-.678.176-.848.336-.171.16-.256.379-.256.656 0 .341.117.624.352.848.234.213.533.32.896.32zm12.928-6.512V186h-1.952v-1.2a2.604 2.604 0 0 1-.992.992 2.921 2.921 0 0 1-1.408.336c-1.92 0-2.88-1.077-2.88-3.232v-4.72h2v4.736c0 .555.112.965.336 1.232.224.267.576.4 1.056.4.555 0 .997-.181 1.328-.544.341-.373.512-.864.512-1.472v-4.352h2zm2.082 7.824v-11.28h2V186h-2zm7.422-8.016c1.099 0 1.915.267 2.448.8.534.533.8 1.355.8 2.464V186h-1.904v-1.2a2.074 2.074 0 0 1-.864.976c-.384.235-.832.352-1.344.352-.522 0-.997-.107-1.424-.32a2.542 2.542 0 0 1-1.008-.88 2.225 2.225 0 0 1-.368-1.248c0-.576.144-1.029.432-1.36.299-.331.779-.571 1.44-.72.662-.149 1.574-.224 2.736-.224h.4v-.368c0-.533-.117-.917-.352-1.152-.224-.235-.602-.352-1.136-.352-.416 0-.853.075-1.312.224a6.37 6.37 0 0 0-1.328.592l-.56-1.376a6.234 6.234 0 0 1 1.584-.688 6.28 6.28 0 0 1 1.76-.272zm-.464 6.704c.534 0 .966-.176 1.296-.528.342-.363.512-.827.512-1.392v-.336h-.288c-.714 0-1.269.032-1.664.096-.394.064-.677.176-.848.336-.17.16-.256.379-.256.656 0 .341.118.624.352.848.235.213.534.32.896.32zm8.625 1.44a6.843 6.843 0 0 1-1.92-.256c-.576-.171-1.067-.416-1.472-.736l.56-1.392c.832.608 1.787.912 2.864.912.459 0 .805-.075 1.04-.224a.71.71 0 0 0 .368-.64.639.639 0 0 0-.256-.544c-.16-.128-.453-.245-.88-.352l-1.28-.288c-.725-.16-1.264-.421-1.616-.784-.352-.363-.528-.832-.528-1.408 0-.48.133-.901.4-1.264.277-.373.656-.661 1.136-.864.491-.203 1.056-.304 1.696-.304.555 0 1.088.085 1.6.256.523.171.981.411 1.376.72l-.56 1.36c-.811-.587-1.621-.88-2.432-.88-.437 0-.779.08-1.024.24a.76.76 0 0 0-.368.672c0 .213.075.389.224.528.16.139.411.245.752.32l1.328.304c.779.171 1.349.443 1.712.816.363.363.544.843.544 1.44 0 .725-.293 1.301-.88 1.728-.587.427-1.381.64-2.384.64z"/>
    <path fill="#606060" d="M158.843 178c.672 0 1.27.171 1.792.512.534.341.944.821 1.232 1.44.299.619.448 1.333.448 2.144 0 .8-.144 1.504-.432 2.112a3.242 3.242 0 0 1-1.232 1.408c-.522.331-1.125.496-1.808.496-.586 0-1.104-.123-1.552-.368a2.528 2.528 0 0 1-1.024-1.088v4.224h-1.616v-10.688h1.616v1.28a2.528 2.528 0 0 1 1.024-1.088c.448-.256.966-.384 1.552-.384zm-.384 6.832c.704 0 1.248-.235 1.632-.704.384-.48.576-1.157.576-2.032 0-.885-.197-1.573-.592-2.064-.384-.491-.922-.736-1.616-.736-.704 0-1.248.24-1.632.72-.373.48-.56 1.163-.56 2.048s.187 1.568.56 2.048c.384.48.928.72 1.632.72zm8.909-6.832c1.046 0 1.819.261 2.32.784.512.523.768 1.317.768 2.384V186h-1.552v-1.296a2.26 2.26 0 0 1-.912 1.056c-.394.235-.858.352-1.392.352-.512 0-.981-.101-1.408-.304a2.542 2.542 0 0 1-1.008-.88 2.301 2.301 0 0 1-.352-1.248c0-.565.144-1.008.432-1.328.299-.331.784-.565 1.456-.704.683-.139 1.616-.208 2.8-.208h.368v-.464c0-.597-.128-1.029-.384-1.296-.245-.267-.65-.4-1.216-.4-.885 0-1.77.272-2.656.816l-.48-1.136c.416-.288.918-.517 1.504-.688a5.907 5.907 0 0 1 1.712-.272zm-.48 6.912c.587 0 1.067-.197 1.44-.592.374-.405.56-.923.56-1.552v-.416h-.288c-.832 0-1.472.037-1.92.112-.448.075-.768.203-.96.384-.192.171-.288.421-.288.752 0 .373.134.688.4.944.278.245.63.368 1.056.368zm10.531-5.552l-.976.096c-.768.075-1.323.309-1.664.704-.331.395-.496.896-.496 1.504V186h-1.616v-7.808h1.568v1.36c.416-.917 1.264-1.424 2.544-1.52l.528-.032.112 1.36zm4.324-1.36c1.046 0 1.819.261 2.32.784.512.523.768 1.317.768 2.384V186h-1.552v-1.296a2.26 2.26 0 0 1-.912 1.056c-.394.235-.858.352-1.392.352-.512 0-.981-.101-1.408-.304a2.542 2.542 0 0 1-1.008-.88 2.301 2.301 0 0 1-.352-1.248c0-.565.144-1.008.432-1.328.299-.331.784-.565 1.456-.704.683-.139 1.616-.208 2.8-.208h.368v-.464c0-.597-.128-1.029-.384-1.296-.245-.267-.65-.4-1.216-.4-.885 0-1.77.272-2.656.816l-.48-1.136c.416-.288.918-.517 1.504-.688a5.907 5.907 0 0 1 1.712-.272zm-.48 6.912c.587 0 1.067-.197 1.44-.592.374-.405.56-.923.56-1.552v-.416h-.288c-.832 0-1.472.037-1.92.112-.448.075-.768.203-.96.384-.192.171-.288.421-.288.752 0 .373.134.688.4.944.278.245.63.368 1.056.368zM194.525 178c1.045 0 1.818.261 2.32.784.512.523.768 1.317.768 2.384V186h-1.552v-1.296a2.271 2.271 0 0 1-.912 1.056c-.395.235-.859.352-1.392.352-.512 0-.982-.101-1.408-.304a2.529 2.529 0 0 1-1.008-.88 2.293 2.293 0 0 1-.352-1.248c0-.565.144-1.008.432-1.328.298-.331.784-.565 1.456-.704.682-.139 1.616-.208 2.8-.208h.368v-.464c0-.597-.128-1.029-.384-1.296-.246-.267-.651-.4-1.216-.4-.886 0-1.771.272-2.656.816l-.48-1.136c.416-.288.917-.517 1.504-.688a5.902 5.902 0 0 1 1.712-.272zm-.48 6.912c.586 0 1.066-.197 1.44-.592.373-.405.56-.923.56-1.552v-.416h-.288c-.832 0-1.472.037-1.92.112-.448.075-.768.203-.96.384-.192.171-.288.421-.288.752 0 .373.133.688.4.944.277.245.629.368 1.056.368zm16.685-2.544h-5.52c.117 1.653.939 2.48 2.464 2.48.896 0 1.707-.293 2.432-.88l.496 1.136a4.065 4.065 0 0 1-1.344.736 5.043 5.043 0 0 1-1.632.272c-1.248 0-2.235-.357-2.96-1.072-.715-.715-1.072-1.701-1.072-2.96 0-.8.155-1.509.464-2.128a3.539 3.539 0 0 1 1.328-1.44c.576-.341 1.227-.512 1.952-.512 1.056 0 1.883.341 2.48 1.024.608.683.912 1.627.912 2.832v.512zm-3.36-3.184c-.619 0-1.115.197-1.488.592-.363.384-.581.939-.656 1.664h4.112c-.032-.725-.219-1.28-.56-1.664-.331-.395-.8-.592-1.408-.592zm10.567-.976h1.616L216.161 186h-1.456l-3.36-7.792h1.696l2.432 5.968 2.464-5.968zm6.059 7.904c-.768 0-1.445-.165-2.032-.496a3.425 3.425 0 0 1-1.344-1.408c-.309-.619-.464-1.333-.464-2.144 0-.821.155-1.536.464-2.144a3.4 3.4 0 0 1 1.344-1.424c.587-.331 1.264-.496 2.032-.496s1.44.165 2.016.496a3.271 3.271 0 0 1 1.344 1.424c.32.608.48 1.323.48 2.144 0 .811-.16 1.525-.48 2.144a3.292 3.292 0 0 1-1.344 1.408c-.576.331-1.248.496-2.016.496zm0-1.28c.715 0 1.259-.235 1.632-.704.384-.469.576-1.157.576-2.064 0-.896-.192-1.579-.576-2.048-.384-.48-.928-.72-1.632-.72-.704 0-1.248.24-1.632.72-.384.469-.576 1.152-.576 2.048 0 .907.187 1.595.56 2.064.384.469.934.704 1.648.704zm5.64 1.168v-11.28h1.616V186h-1.616zm10.723-7.808V186h-1.568v-1.264a2.5 2.5 0 0 1-1.024 1.024 2.936 2.936 0 0 1-1.44.352c-1.899 0-2.848-1.045-2.848-3.136v-4.784h1.616v4.768c0 .629.128 1.093.384 1.392.256.299.65.448 1.184.448.629 0 1.13-.203 1.504-.608.384-.405.576-.944.576-1.616v-4.384h1.616zm8.565 6.928a3.758 3.758 0 0 1-1.168.688 5.017 5.017 0 0 1-1.44.304l-.08.576a2.66 2.66 0 0 1 .336-.032c.363 0 .661.091.896.272.235.192.352.469.352.832 0 .395-.171.715-.512.96-.341.256-.816.384-1.424.384-.224 0-.469-.027-.736-.08a3.017 3.017 0 0 1-.704-.224l.208-.752c.395.149.8.224 1.216.224.267 0 .475-.043.624-.128a.415.415 0 0 0 .224-.384c0-.267-.187-.4-.56-.4-.192 0-.416.043-.672.128l-.32-.272.128-1.152c-.971-.149-1.733-.576-2.288-1.28-.555-.715-.832-1.611-.832-2.688 0-.811.16-1.525.48-2.144a3.577 3.577 0 0 1 1.376-1.44c.597-.341 1.291-.512 2.08-.512.544 0 1.067.091 1.568.272.512.181.928.427 1.248.736l-.496 1.152c-.704-.576-1.435-.864-2.192-.864-.747 0-1.333.245-1.76.736-.416.48-.624 1.163-.624 2.048 0 .875.208 1.552.624 2.032.416.469 1.003.704 1.76.704.757 0 1.488-.288 2.192-.864l.496 1.168zm4.694-7.12c1.046 0 1.819.261 2.32.784.512.523.768 1.317.768 2.384V186h-1.552v-1.296a2.26 2.26 0 0 1-.912 1.056c-.394.235-.858.352-1.392.352-.512 0-.981-.101-1.408-.304a2.542 2.542 0 0 1-1.008-.88 2.301 2.301 0 0 1-.352-1.248c0-.565.144-1.008.432-1.328.299-.331.784-.565 1.456-.704.683-.139 1.616-.208 2.8-.208h.368v-.464c0-.597-.128-1.029-.384-1.296-.245-.267-.65-.4-1.216-.4-.885 0-1.77.272-2.656.816l-.48-1.136c.416-.288.918-.517 1.504-.688a5.907 5.907 0 0 1 1.712-.272zm-.48 6.912c.587 0 1.067-.197 1.44-.592.374-.405.56-.923.56-1.552v-.416h-.288c-.832 0-1.472.037-1.92.112-.448.075-.768.203-.96.384-.192.171-.288.421-.288.752 0 .373.134.688.4.944.278.245.63.368 1.056.368zm-2.144-8.432c0-.629.139-1.115.416-1.456.278-.341.646-.512 1.104-.512.214 0 .411.043.592.128.192.085.432.213.72.384.246.139.427.24.544.304.128.053.251.08.368.08.214 0 .384-.08.512-.24.128-.16.198-.363.208-.608h.816c0 .629-.138 1.115-.416 1.456-.277.341-.645.512-1.104.512-.213 0-.421-.043-.624-.128a6.54 6.54 0 0 1-.688-.368 4.57 4.57 0 0 0-.512-.288.951.951 0 0 0-.4-.096.623.623 0 0 0-.512.24c-.128.149-.197.347-.208.592h-.816zm11.315 9.632c-.768 0-1.445-.165-2.032-.496a3.425 3.425 0 0 1-1.344-1.408c-.309-.619-.464-1.333-.464-2.144 0-.821.155-1.536.464-2.144a3.4 3.4 0 0 1 1.344-1.424c.587-.331 1.264-.496 2.032-.496s1.44.165 2.016.496a3.271 3.271 0 0 1 1.344 1.424c.32.608.48 1.323.48 2.144 0 .811-.16 1.525-.48 2.144a3.292 3.292 0 0 1-1.344 1.408c-.576.331-1.248.496-2.016.496zm0-1.28c.715 0 1.259-.235 1.632-.704.384-.469.576-1.157.576-2.064 0-.896-.192-1.579-.576-2.048-.384-.48-.928-.72-1.632-.72-.704 0-1.248.24-1.632.72-.384.469-.576 1.152-.576 2.048 0 .907.187 1.595.56 2.064.384.469.933.704 1.648.704z"/>
    <path fill="#1ADE8D" fill-rule="evenodd" d="M234 84v7c0 12.703 10.297 23 23 23h14c12.703 0 23-10.297 23-23V77c0-12.703-10.297-23-23-23h-14c-12.703 0-23 10.297-23 23v7z" clip-rule="evenodd" opacity=".21"/>
    <path fill="#202224" d="M69.008 80.128c-.875 0-1.68-.117-2.416-.352a5.248 5.248 0 0 1-1.872-1.04l.592-1.216a5.69 5.69 0 0 0 1.712.976c.597.192 1.264.288 2 .288.843 0 1.493-.155 1.952-.464.459-.32.688-.768.688-1.344 0-.49-.213-.853-.64-1.088-.427-.245-1.11-.475-2.048-.688-.896-.192-1.632-.41-2.208-.656-.576-.245-1.03-.576-1.36-.992-.32-.427-.48-.965-.48-1.616 0-.661.17-1.243.512-1.744.352-.501.848-.89 1.488-1.168.64-.288 1.381-.432 2.224-.432.79 0 1.53.123 2.224.368.704.235 1.28.576 1.728 1.024l-.576 1.216a5.604 5.604 0 0 0-1.616-.944 4.734 4.734 0 0 0-1.744-.32c-.81 0-1.45.17-1.92.512-.459.33-.688.795-.688 1.392 0 .512.203.901.608 1.168.405.256 1.056.49 1.952.704.939.213 1.696.437 2.272.672.587.224 1.05.539 1.392.944.352.395.528.912.528 1.552 0 .65-.176 1.221-.528 1.712-.341.49-.837.87-1.488 1.136-.64.267-1.403.4-2.288.4zm9.761-1.264c.245 0 .485-.016.72-.048l-.08 1.232a5.256 5.256 0 0 1-.832.064c-1.013 0-1.77-.245-2.272-.736-.49-.501-.736-1.221-.736-2.16V73.44h-1.52v-1.248h1.52V69.84h1.616v2.352h2.144v1.248h-2.144v3.712c0 1.141.528 1.712 1.584 1.712zM83.978 72c1.045 0 1.818.261 2.32.784.512.523.768 1.317.768 2.384V80h-1.552v-1.296a2.27 2.27 0 0 1-.912 1.056c-.395.235-.859.352-1.392.352-.512 0-.982-.101-1.408-.304a2.533 2.533 0 0 1-1.008-.88 2.297 2.297 0 0 1-.352-1.248c0-.565.144-1.008.432-1.328.298-.33.784-.565 1.456-.704.682-.139 1.616-.208 2.8-.208h.368v-.464c0-.597-.128-1.03-.384-1.296-.246-.267-.65-.4-1.216-.4-.886 0-1.77.272-2.656.816l-.48-1.136c.416-.288.917-.517 1.504-.688A5.893 5.893 0 0 1 83.978 72zm-.48 6.912c.586 0 1.066-.197 1.44-.592.373-.405.56-.923.56-1.552v-.416h-.288c-.832 0-1.472.037-1.92.112-.448.075-.768.203-.96.384-.192.17-.288.421-.288.752 0 .373.133.688.4.944.277.245.63.368 1.056.368zm9.474-.048c.246 0 .486-.016.72-.048l-.08 1.232a5.257 5.257 0 0 1-.832.064c-1.013 0-1.77-.245-2.272-.736-.49-.501-.736-1.221-.736-2.16V73.44h-1.52v-1.248h1.52V69.84h1.616v2.352h2.144v1.248h-2.144v3.712c0 1.141.528 1.712 1.584 1.712zm8.793-6.672V80h-1.568v-1.264c-.246.448-.587.79-1.024 1.024a2.938 2.938 0 0 1-1.44.352c-1.899 0-2.848-1.045-2.848-3.136v-4.784H96.5v4.768c0 .63.128 1.093.384 1.392.256.299.65.448 1.184.448.63 0 1.13-.203 1.504-.608.384-.405.576-.944.576-1.616v-4.384h1.616zm5.013 7.92c-1.354 0-2.437-.33-3.248-.992l.496-1.168c.8.619 1.734.928 2.8.928.523 0 .923-.085 1.2-.256a.851.851 0 0 0 .416-.752c0-.277-.096-.496-.288-.656-.181-.16-.501-.293-.96-.4l-1.296-.288c-.693-.16-1.216-.421-1.568-.784-.352-.363-.528-.821-.528-1.376 0-.704.283-1.275.848-1.712.576-.437 1.328-.656 2.256-.656.555 0 1.083.09 1.584.272.502.17.934.416 1.296.736l-.496 1.136c-.768-.608-1.562-.912-2.384-.912-.49 0-.88.096-1.168.288a.906.906 0 0 0-.416.784.89.89 0 0 0 .256.656c.182.16.464.283.848.368l1.328.304c.758.17 1.312.437 1.664.8.352.352.528.816.528 1.392 0 .704-.288 1.264-.864 1.68-.565.405-1.333.608-2.304.608zm15.874-3.744h-5.52c.117 1.653.938 2.48 2.464 2.48.896 0 1.706-.293 2.432-.88l.496 1.136c-.363.31-.811.555-1.344.736a5.044 5.044 0 0 1-1.632.272c-1.248 0-2.235-.357-2.96-1.072-.715-.715-1.072-1.701-1.072-2.96 0-.8.154-1.51.464-2.128a3.536 3.536 0 0 1 1.328-1.44c.576-.341 1.226-.512 1.952-.512 1.056 0 1.882.341 2.48 1.024.608.683.912 1.627.912 2.832v.512zm-3.36-3.184c-.619 0-1.115.197-1.488.592-.363.384-.582.939-.656 1.664h4.112c-.032-.725-.219-1.28-.56-1.664-.331-.395-.8-.592-1.408-.592zm10.567-.976h1.616L128.083 80h-1.456l-3.36-7.792h1.696l2.432 5.968 2.464-5.968zm6.059 7.904c-.768 0-1.445-.165-2.032-.496a3.423 3.423 0 0 1-1.344-1.408c-.309-.619-.464-1.333-.464-2.144 0-.821.155-1.536.464-2.144a3.4 3.4 0 0 1 1.344-1.424c.587-.33 1.264-.496 2.032-.496s1.44.165 2.016.496c.587.33 1.035.805 1.344 1.424.32.608.48 1.323.48 2.144 0 .81-.16 1.525-.48 2.144a3.29 3.29 0 0 1-1.344 1.408c-.576.33-1.248.496-2.016.496zm0-1.28c.715 0 1.259-.235 1.632-.704.384-.47.576-1.157.576-2.064 0-.896-.192-1.579-.576-2.048-.384-.48-.928-.72-1.632-.72-.704 0-1.248.24-1.632.72-.384.47-.576 1.152-.576 2.048 0 .907.187 1.595.56 2.064.384.47.934.704 1.648.704zm5.64 1.168V68.72h1.616V80h-1.616zm10.723-7.808V80h-1.568v-1.264c-.246.448-.587.79-1.024 1.024a2.94 2.94 0 0 1-1.44.352c-1.899 0-2.848-1.045-2.848-3.136v-4.784h1.616v4.768c0 .63.128 1.093.384 1.392.256.299.65.448 1.184.448.629 0 1.13-.203 1.504-.608.384-.405.576-.944.576-1.616v-4.384h1.616zm5.957 6.672c.245 0 .485-.016.72-.048l-.08 1.232a5.26 5.26 0 0 1-.832.064c-1.013 0-1.771-.245-2.272-.736-.491-.501-.736-1.221-.736-2.16V73.44h-1.52v-1.248h1.52V69.84h1.616v2.352h2.144v1.248h-2.144v3.712c0 1.141.528 1.712 1.584 1.712zM160.183 80v-7.808h1.616V80h-1.616zm-.112-11.296h1.856v1.68h-1.856v-1.68zm9.523 3.504h1.616L167.818 80h-1.456l-3.36-7.792h1.696l2.432 5.968 2.464-5.968zm6.059 7.904c-.768 0-1.446-.165-2.032-.496a3.423 3.423 0 0 1-1.344-1.408c-.31-.619-.464-1.333-.464-2.144 0-.821.154-1.536.464-2.144a3.4 3.4 0 0 1 1.344-1.424c.586-.33 1.264-.496 2.032-.496s1.44.165 2.016.496c.586.33 1.034.805 1.344 1.424.32.608.48 1.323.48 2.144 0 .81-.16 1.525-.48 2.144a3.302 3.302 0 0 1-1.344 1.408c-.576.33-1.248.496-2.016.496zm0-1.28c.714 0 1.258-.235 1.632-.704.384-.47.576-1.157.576-2.064 0-.896-.192-1.579-.576-2.048-.384-.48-.928-.72-1.632-.72-.704 0-1.248.24-1.632.72-.384.47-.576 1.152-.576 2.048 0 .907.186 1.595.56 2.064.384.47.933.704 1.648.704z" opacity=".7"/>
    <path fill="#202224" d="M80.605 143l-1.917-4.455h-9.261L67.51 143H64l8.613-19.035h2.835L84.061 143h-3.456zm-10.044-7.155h6.966l-3.483-8.1-3.483 8.1zm28.356-6.048V143h-3.294v-2.025a4.398 4.398 0 0 1-1.674 1.674c-.702.378-1.494.567-2.376.567-3.24 0-4.86-1.818-4.86-5.454v-7.965h3.375v7.992c0 .936.19 1.629.567 2.079.378.45.972.675 1.782.675.936 0 1.683-.306 2.241-.918.576-.63.864-1.458.864-2.484v-7.344h3.375zm9.373 13.419c-1.17 0-2.25-.144-3.24-.432-.972-.288-1.8-.702-2.484-1.242l.945-2.349c1.404 1.026 3.015 1.539 4.833 1.539.774 0 1.359-.126 1.755-.378.414-.252.621-.612.621-1.08 0-.396-.144-.702-.432-.918-.27-.216-.765-.414-1.485-.594l-2.16-.486c-1.224-.27-2.133-.711-2.727-1.323-.594-.612-.891-1.404-.891-2.376 0-.81.225-1.521.675-2.133.468-.63 1.107-1.116 1.917-1.458.828-.342 1.782-.513 2.862-.513.936 0 1.836.144 2.7.432a7.499 7.499 0 0 1 2.322 1.215l-.945 2.295c-1.368-.99-2.736-1.485-4.104-1.485-.738 0-1.314.135-1.728.405-.414.27-.621.648-.621 1.134 0 .36.126.657.378.891.27.234.693.414 1.269.54l2.241.513c1.314.288 2.277.747 2.889 1.377.612.612.918 1.422.918 2.43 0 1.224-.495 2.196-1.485 2.916-.99.72-2.331 1.08-4.023 1.08zm15.862-2.538c.396 0 .81-.027 1.242-.081l-.162 2.511c-.54.054-1.035.081-1.485.081-1.854 0-3.222-.423-4.104-1.269-.882-.864-1.323-2.142-1.323-3.834v-5.751h-2.538v-2.538h2.538v-3.942h3.375v3.942h3.483v2.538h-3.483v5.697c0 1.764.819 2.646 2.457 2.646zm12.911-8.397l-1.971.189c-2.232.234-3.348 1.368-3.348 3.402V143h-3.375v-13.203h3.213v2.322c.684-1.584 2.097-2.448 4.239-2.592l1.026-.081.216 2.835zm8.259-2.808c1.854 0 3.231.45 4.131 1.35.9.9 1.35 2.286 1.35 4.158V143h-3.213v-2.025a3.503 3.503 0 0 1-1.458 1.647c-.648.396-1.404.594-2.268.594-.882 0-1.683-.18-2.403-.54a4.275 4.275 0 0 1-1.701-1.485 3.752 3.752 0 0 1-.621-2.106c0-.972.243-1.737.729-2.295.504-.558 1.314-.963 2.43-1.215 1.116-.252 2.655-.378 4.617-.378h.675v-.621c0-.9-.198-1.548-.594-1.944-.378-.396-1.017-.594-1.917-.594-.702 0-1.44.126-2.214.378-.756.234-1.503.567-2.241.999l-.945-2.322c.738-.468 1.629-.855 2.673-1.161 1.044-.306 2.034-.459 2.97-.459zm-.783 11.313c.9 0 1.629-.297 2.187-.891.576-.612.864-1.395.864-2.349v-.567h-.486c-1.206 0-2.142.054-2.808.162-.666.108-1.143.297-1.431.567-.288.27-.432.639-.432 1.107 0 .576.198 1.053.594 1.431.396.36.9.54 1.512.54zM155.234 143v-19.035h3.375V143h-3.375zm13.876.216c-1.35 0-2.538-.279-3.564-.837a5.814 5.814 0 0 1-2.349-2.403c-.558-1.044-.837-2.259-.837-3.645 0-1.386.279-2.592.837-3.618a5.814 5.814 0 0 1 2.349-2.403c1.026-.558 2.214-.837 3.564-.837s2.529.279 3.537.837a5.606 5.606 0 0 1 2.349 2.403c.558 1.026.837 2.232.837 3.618 0 1.386-.279 2.601-.837 3.645a5.606 5.606 0 0 1-2.349 2.403c-1.008.558-2.187.837-3.537.837zm-.027-2.619c1.098 0 1.935-.36 2.511-1.08.576-.72.864-1.782.864-3.186 0-1.386-.288-2.439-.864-3.159-.576-.738-1.404-1.107-2.484-1.107s-1.917.369-2.511 1.107c-.576.72-.864 1.773-.864 3.159 0 1.404.288 2.466.864 3.186.576.72 1.404 1.08 2.484 1.08zm18.123-11.124c1.134 0 2.142.288 3.024.864.9.576 1.593 1.395 2.079 2.457.504 1.044.756 2.25.756 3.618 0 1.368-.252 2.565-.756 3.591-.486 1.026-1.17 1.818-2.052 2.376-.882.558-1.899.837-3.051.837-.936 0-1.773-.198-2.511-.594a4.168 4.168 0 0 1-1.701-1.647v6.885h-3.375v-18.063h3.321v1.998a4.079 4.079 0 0 1 1.701-1.701c.756-.414 1.611-.621 2.565-.621zm-.891 11.124c1.062 0 1.89-.36 2.484-1.08.594-.738.891-1.773.891-3.105 0-1.368-.297-2.43-.891-3.186-.594-.756-1.422-1.134-2.484-1.134-1.08 0-1.917.369-2.511 1.107-.576.738-.864 1.791-.864 3.159 0 1.35.288 2.394.864 3.132.594.738 1.431 1.107 2.511 1.107zm10.52 2.403v-13.203h3.375V143h-3.375zm-.189-19.332h3.726v3.321h-3.726v-3.321zm14.795 17.01c.396 0 .81-.027 1.242-.081l-.162 2.511c-.54.054-1.035.081-1.485.081-1.854 0-3.222-.423-4.104-1.269-.882-.864-1.323-2.142-1.323-3.834v-5.751h-2.538v-2.538h2.538v-3.942h3.375v3.942h3.483v2.538h-3.483v5.697c0 1.764.819 2.646 2.457 2.646zm11.884-11.205c1.584 0 2.763.45 3.537 1.35.774.9 1.161 2.259 1.161 4.077v8.1h-3.375v-7.911c0-1.026-.198-1.773-.594-2.241-.378-.468-.981-.702-1.809-.702-.972 0-1.755.306-2.349.918-.576.612-.864 1.431-.864 2.457V143h-3.375v-19.035h3.375v7.668a4.345 4.345 0 0 1 1.782-1.593c.756-.378 1.593-.567 2.511-.567zm20.709 7.533h-8.991c.108 1.224.477 2.133 1.107 2.727.63.594 1.53.891 2.7.891 1.458 0 2.79-.468 3.996-1.404l.972 2.322c-.612.504-1.386.909-2.322 1.215a8.744 8.744 0 0 1-2.781.459c-2.16 0-3.87-.612-5.13-1.836-1.242-1.224-1.863-2.898-1.863-5.022 0-1.35.27-2.547.81-3.591s1.296-1.854 2.268-2.43c.99-.576 2.106-.864 3.348-.864 1.818 0 3.249.585 4.293 1.755 1.062 1.17 1.593 2.781 1.593 4.833v.945zm-5.805-5.157c-.9 0-1.629.288-2.187.864-.54.576-.873 1.404-.999 2.484h6.102c-.036-1.098-.306-1.926-.81-2.484-.504-.576-1.206-.864-2.106-.864zm15.587 11.367c-1.386 0-2.592-.279-3.618-.837a5.683 5.683 0 0 1-2.322-2.376c-.54-1.026-.81-2.223-.81-3.591 0-1.368.279-2.574.837-3.618a6.028 6.028 0 0 1 2.43-2.457c1.044-.576 2.25-.864 3.618-.864.936 0 1.845.153 2.727.459.9.288 1.62.684 2.16 1.188l-.972 2.376a6.357 6.357 0 0 0-1.782-1.026 5.109 5.109 0 0 0-1.836-.351c-1.17 0-2.079.369-2.727 1.107-.648.72-.972 1.764-.972 3.132 0 1.35.324 2.394.972 3.132.648.72 1.557 1.08 2.727 1.08.612 0 1.224-.117 1.836-.351a6.357 6.357 0 0 0 1.782-1.026l.972 2.349c-.576.522-1.314.936-2.214 1.242-.9.288-1.836.432-2.808.432zm20.286-13.419V143h-3.294v-2.025a4.398 4.398 0 0 1-1.674 1.674c-.702.378-1.494.567-2.376.567-3.24 0-4.86-1.818-4.86-5.454v-7.965h3.375v7.992c0 .936.189 1.629.567 2.079.378.45.972.675 1.782.675.936 0 1.683-.306 2.241-.918.576-.63.864-1.458.864-2.484v-7.344h3.375zm9.372 13.419c-1.17 0-2.25-.144-3.24-.432-.972-.288-1.8-.702-2.484-1.242l.945-2.349c1.404 1.026 3.015 1.539 4.833 1.539.774 0 1.359-.126 1.755-.378.414-.252.621-.612.621-1.08 0-.396-.144-.702-.432-.918-.27-.216-.765-.414-1.485-.594l-2.16-.486c-1.224-.27-2.133-.711-2.727-1.323-.594-.612-.891-1.404-.891-2.376 0-.81.225-1.521.675-2.133.468-.63 1.107-1.116 1.917-1.458.828-.342 1.782-.513 2.862-.513.936 0 1.836.144 2.7.432a7.499 7.499 0 0 1 2.322 1.215l-.945 2.295c-1.368-.99-2.736-1.485-4.104-1.485-.738 0-1.314.135-1.728.405-.414.27-.621.648-.621 1.134 0 .36.126.657.378.891.27.234.693.414 1.269.54l2.241.513c1.314.288 2.277.747 2.889 1.377.612.612.918 1.422.918 2.43 0 1.224-.495 2.196-1.485 2.916-.99.72-2.331 1.08-4.023 1.08z"/>
    <defs>
        <filter id="a" width="370" height="269" x="0" y="0" color-interpolation-filters="sRGB" filterUnits="userSpaceOnUse">
            <feFlood flood-opacity="0" result="BackgroundImageFix"/>
            <feColorMatrix in="SourceAlpha" values="0 0 0 0 0 0 0 0 0 0 0 0 0 0 0 0 0 0 127 0"/>
            <feOffset dx="6" dy="6"/>
            <feGaussianBlur stdDeviation="27"/>
            <feColorMatrix values="0 0 0 0 0 0 0 0 0 0 0 0 0 0 0 0 0 0 0.05 0"/>
            <feBlend in2="BackgroundImageFix" result="effect1_dropShadow"/>
            <feBlend in="SourceGraphic" in2="effect1_dropShadow" result="shape"/>
        </filter>
    </defs>
</svg>
